# xmcd CD database file
#
# Track frame offsets:
#	150
#	14850
#	45902
#	63367
#	96342
#
# Disc length: 1697 seconds
#
# Revision: 0
# Processed by: cddbd v1.5.1PL2 Copyright (c) Steve Scherf et al.
# Submitted via: CDex 1.51
#
DISCID=3c069f05
DTITLE=ULTRAS,GABALL,Tetsuya Komuro,Takeshi Hayama,KEIKO - AIDA決めてくれー！
DYEAR=1900
DGENRE=J-Pop
TTITLE0=AIDA決めてくれー！
TTITLE1=ambient lounge(Hidetoshi Nakata's thema)
TTITLE2=In the city
TTITLE3=I WILLL SURVIVE (KEIKO VERSION)
TTITLE4=ambient lounge(Hidetoshi Nakata's thema) basic tracks
EXTD=
EXTT0=
EXTT1=
EXTT2=
EXTT3=
EXTT4=
PLAYORDER=
